<?xml version="1.0" standalone="no"?>
<!DOCTYPE svg PUBLIC "-//W3C//DTD SVG 20010904//EN"
 "http://www.w3.org/TR/2001/REC-SVG-20010904/DTD/svg10.dtd">
<svg version="1.0" xmlns="http://www.w3.org/2000/svg"
 width="512.000000pt" height="512.000000pt" viewBox="0 0 512.000000 512.000000"
 preserveAspectRatio="xMidYMid meet">

<g transform="translate(0.000000,512.000000) scale(0.100000,-0.100000)"
fill="#000000" stroke="none">
<path d="M2495 4194 c-16 -2 -57 -9 -90 -15 -58 -10 -2152 -804 -2207 -837
-35 -21 -68 -81 -68 -127 0 -47 25 -100 59 -124 32 -22 2101 -813 2191 -838
92 -25 281 -23 375 4 39 11 396 145 795 298 399 152 735 281 748 286 l22 9 0
-523 0 -522 -30 -14 c-46 -20 -125 -101 -153 -157 -41 -81 -49 -149 -45 -384
3 -241 8 -260 78 -303 34 -21 45 -22 305 -22 254 0 272 1 305 21 19 11 45 36
58 54 23 34 23 37 20 295 -3 258 -3 261 -30 317 -31 68 -96 140 -155 175 l-43
25 0 578 c0 541 1 578 18 585 9 3 71 27 137 52 139 53 167 70 189 117 33 69 8
163 -54 199 -47 28 -2120 817 -2185 832 -67 15 -194 25 -240 19z"/>
<path d="M1132 2058 l3 -353 24 -34 c19 -26 54 -48 145 -91 283 -135 576 -220
916 -266 168 -23 508 -23 683 0 337 44 673 143 945 280 145 73 136 44 140 465
3 336 2 353 -15 346 -10 -4 -52 -19 -93 -35 -41 -15 -299 -114 -572 -219 -274
-105 -526 -198 -560 -208 -85 -23 -289 -23 -373 0 -34 9 -326 118 -649 242
-324 124 -590 225 -593 225 -2 0 -2 -159 -1 -352z"/>
</g>
</svg>
